<svg aria-hidden="true" style="position: absolute; width: 0; height: 0; overflow: hidden;" version="1.1" xmlns="http://www.w3.org/2000/svg" xmlns:xlink="http://www.w3.org/1999/xlink">
<defs>
<symbol id="icon-apple-logo" viewBox="0 0 26 32">
<path d="M19.7 0.778c0 1.566-0.561 3.029-1.678 4.382-1.349 1.609-2.98 2.539-4.75 2.392-0.023-0.188-0.036-0.386-0.036-0.594 0-1.503 0.641-3.113 1.781-4.428 0.569-0.666 1.292-1.22 2.169-1.662 0.875-0.435 1.703-0.676 2.482-0.717 0.010 0.093 0.018 0.186 0.023 0.279 0.006 0.116 0.009 0.232 0.009 0.347z"></path>
<path d="M25.622 24.557c-0.464 1.094-1.014 2.101-1.65 3.027-0.868 1.262-1.578 2.136-2.126 2.621-0.849 0.796-1.758 1.204-2.732 1.228-0.699 0-1.542-0.203-2.523-0.615-0.985-0.41-1.889-0.613-2.717-0.613-0.868 0-1.798 0.203-2.794 0.613-0.997 0.412-1.8 0.626-2.414 0.648-0.934 0.041-1.865-0.379-2.794-1.26-0.593-0.528-1.335-1.432-2.223-2.714-0.953-1.369-1.737-2.956-2.351-4.765-0.658-1.954-0.987-3.847-0.987-5.679 0-2.099 0.444-3.909 1.335-5.426 0.7-1.219 1.63-2.18 2.795-2.885s2.424-1.065 3.779-1.088c0.742 0 1.714 0.234 2.923 0.694 1.205 0.462 1.979 0.696 2.318 0.696 0.254 0 1.113-0.274 2.571-0.819 1.378-0.506 2.541-0.716 3.494-0.633 2.582 0.213 4.522 1.251 5.812 3.123-2.309 1.428-3.452 3.428-3.429 5.993 0.021 1.998 0.731 3.661 2.127 4.981 0.633 0.613 1.339 1.086 2.126 1.423-0.171 0.505-0.35 0.988-0.542 1.452z"></path>
</symbol>
<symbol id="icon-non-photo" viewBox="0 0 34 32">
<path fill="#8a8a89" style="fill: var(--color1, #8a8a89)" d="M1.811 0h30.672c1 0 1.811 0.811 1.811 1.811v28.377c0 1-0.811 1.811-1.811 1.811h-30.672c-1 0-1.811-0.811-1.811-1.811v-28.377c0-1 0.811-1.811 1.811-1.811z"></path>
<path fill="#b0adad" style="fill: var(--color2, #b0adad)" d="M13.162 13.283l5.699 9.872h-11.399l5.699-9.872z"></path>
<path fill="#a8a6a6" style="fill: var(--color3, #a8a6a6)" d="M19.14 11.23l7.425 12.86h-14.85l7.425-12.86z"></path>
<path fill="#a8a6a6" style="fill: var(--color3, #a8a6a6)" d="M17.57 10.204c0 0.967-0.77 1.751-1.721 1.751s-1.721-0.784-1.721-1.751c0-0.967 0.77-1.751 1.721-1.751s1.721 0.784 1.721 1.751z"></path>
</symbol>
<symbol id="icon-log-in-01" viewBox="0 0 32 32">
<path fill="none" stroke="#9fb7ce" style="stroke: var(--color4, #9fb7ce)" stroke-linejoin="round" stroke-linecap="round" stroke-miterlimit="4" stroke-width="3.2" d="M20 4h1.6c2.24 0 3.36 0 4.216 0.436 0.753 0.383 1.364 0.995 1.748 1.748 0.436 0.856 0.436 1.976 0.436 4.216v11.2c0 2.24 0 3.36-0.436 4.216-0.384 0.753-0.995 1.364-1.748 1.748-0.856 0.436-1.976 0.436-4.216 0.436h-1.6"></path>
<path fill="none" stroke="#9fb7ce" style="stroke: var(--color4, #9fb7ce)" stroke-linejoin="round" stroke-linecap="round" stroke-miterlimit="4" stroke-width="3.2" d="M13.333 9.333l6.667 6.667M20 16l-6.667 6.667M20 16h-16"></path>
</symbol>
<symbol id="icon-logo" viewBox="0 0 152 32">
<path fill="#ffda44" style="fill: var(--color5, #ffda44)" d="M16 32c8.837 0 16-7.163 16-16s-7.163-16-16-16c-8.837 0-16 7.163-16 16s7.163 16 16 16z"></path>
<path fill="#338af3" style="fill: var(--color6, #338af3)" d="M0 16c0-8.836 7.163-16 16-16s16 7.163 16 16z"></path>
<path fill="#121417" style="fill: var(--color7, #121417)" d="M52.973 21.779v2.221h-8.158v-2.221h8.159zM45.596 7.75v16.25h-2.801v-16.25h2.801zM59.737 24.223c-0.893 0-1.7-0.145-2.422-0.435-0.714-0.298-1.324-0.711-1.83-1.239-0.498-0.528-0.882-1.15-1.15-1.864s-0.402-1.484-0.402-2.31v-0.446c0-0.945 0.138-1.801 0.413-2.567s0.658-1.421 1.15-1.964c0.491-0.551 1.071-0.971 1.741-1.261s1.395-0.435 2.176-0.435c0.863 0 1.618 0.145 2.266 0.435s1.183 0.699 1.607 1.228c0.432 0.521 0.751 1.142 0.96 1.864 0.216 0.722 0.324 1.518 0.324 2.388v1.149h-9.33v-1.931h6.674v-0.212c-0.015-0.484-0.112-0.938-0.29-1.362-0.171-0.424-0.435-0.766-0.792-1.027s-0.833-0.391-1.429-0.391c-0.447 0-0.845 0.097-1.194 0.29-0.342 0.186-0.629 0.458-0.859 0.815s-0.409 0.789-0.536 1.295c-0.119 0.498-0.178 1.060-0.178 1.685v0.446c0 0.528 0.071 1.019 0.212 1.473 0.149 0.446 0.365 0.837 0.647 1.172s0.625 0.599 1.027 0.792c0.402 0.186 0.859 0.279 1.373 0.279 0.647 0 1.224-0.13 1.73-0.391s0.945-0.629 1.317-1.105l1.417 1.373c-0.26 0.379-0.599 0.744-1.016 1.094-0.417 0.342-0.926 0.621-1.529 0.837-0.595 0.216-1.287 0.324-2.076 0.324zM73.019 21.578v-5.759c0-0.432-0.078-0.804-0.234-1.116s-0.394-0.554-0.714-0.725c-0.312-0.171-0.707-0.257-1.183-0.257-0.439 0-0.819 0.074-1.138 0.223s-0.569 0.35-0.748 0.603c-0.179 0.253-0.268 0.539-0.268 0.859h-2.678c0-0.476 0.115-0.938 0.346-1.384s0.566-0.844 1.004-1.194 0.964-0.625 1.574-0.826c0.61-0.201 1.295-0.301 2.053-0.301 0.908 0 1.711 0.152 2.411 0.458 0.707 0.305 1.261 0.766 1.663 1.384 0.409 0.61 0.614 1.376 0.614 2.299v5.368c0 0.551 0.037 1.045 0.112 1.484 0.082 0.432 0.197 0.807 0.346 1.127v0.178h-2.757c-0.126-0.29-0.227-0.659-0.301-1.105-0.067-0.454-0.1-0.893-0.1-1.317zM73.409 16.656l0.022 1.663h-1.931c-0.499 0-0.938 0.048-1.317 0.145-0.379 0.089-0.696 0.223-0.949 0.402s-0.443 0.394-0.569 0.647c-0.126 0.253-0.19 0.539-0.19 0.859s0.074 0.614 0.223 0.882c0.149 0.26 0.365 0.465 0.647 0.614 0.29 0.149 0.64 0.223 1.049 0.223 0.551 0 1.031-0.112 1.44-0.335 0.417-0.231 0.744-0.51 0.982-0.837 0.238-0.335 0.365-0.651 0.38-0.949l0.871 1.194c-0.089 0.305-0.242 0.632-0.458 0.982s-0.499 0.685-0.848 1.004c-0.342 0.312-0.755 0.569-1.239 0.77-0.476 0.201-1.027 0.301-1.652 0.301-0.789 0-1.492-0.156-2.109-0.469-0.618-0.32-1.101-0.748-1.451-1.284-0.35-0.543-0.525-1.157-0.525-1.841 0-0.64 0.119-1.205 0.357-1.696 0.246-0.498 0.603-0.915 1.071-1.25 0.476-0.335 1.057-0.588 1.741-0.759 0.685-0.179 1.466-0.268 2.344-0.268h2.109zM80.776 14.223v9.777h-2.69v-12.076h2.567l0.123 2.299zM84.47 11.846l-0.022 2.5c-0.164-0.030-0.342-0.052-0.536-0.067-0.186-0.015-0.372-0.022-0.558-0.022-0.461 0-0.867 0.067-1.217 0.201-0.35 0.127-0.644 0.312-0.882 0.558-0.231 0.238-0.409 0.528-0.536 0.87s-0.201 0.726-0.223 1.149l-0.614 0.045c0-0.759 0.074-1.462 0.223-2.109s0.372-1.216 0.67-1.708c0.305-0.491 0.685-0.874 1.138-1.15 0.461-0.275 0.993-0.413 1.596-0.413 0.164 0 0.338 0.015 0.525 0.045 0.193 0.030 0.338 0.063 0.435 0.1zM88.366 14.502v9.498h-2.69v-12.076h2.534l0.156 2.578zM87.886 17.516l-0.871-0.011c0.007-0.856 0.126-1.641 0.357-2.355 0.238-0.714 0.566-1.328 0.982-1.842 0.424-0.513 0.93-0.908 1.518-1.183 0.588-0.283 1.243-0.424 1.964-0.424 0.58 0 1.105 0.082 1.574 0.245 0.476 0.156 0.882 0.413 1.216 0.77 0.342 0.357 0.603 0.822 0.781 1.395 0.179 0.565 0.268 1.261 0.268 2.087v7.801h-2.701v-7.812c0-0.58-0.085-1.038-0.257-1.373-0.164-0.342-0.406-0.584-0.725-0.726-0.313-0.149-0.703-0.223-1.172-0.223-0.461 0-0.874 0.097-1.239 0.29s-0.673 0.458-0.926 0.792c-0.246 0.335-0.435 0.722-0.569 1.161s-0.201 0.908-0.201 1.406zM108.411 21.779v2.221h-8.159v-2.221h8.159zM101.034 7.75v16.25h-2.801v-16.25h2.801zM112.73 11.924v12.076h-2.701v-12.076h2.701zM109.851 8.754c0-0.409 0.134-0.748 0.402-1.016 0.275-0.275 0.655-0.413 1.138-0.413 0.476 0 0.852 0.138 1.127 0.413 0.275 0.268 0.413 0.606 0.413 1.016 0 0.402-0.138 0.737-0.413 1.004s-0.651 0.402-1.127 0.402c-0.484 0-0.863-0.134-1.138-0.402-0.268-0.268-0.402-0.603-0.402-1.004zM117.887 14.502v9.498h-2.689v-12.076h2.533l0.157 2.578zM117.407 17.516l-0.87-0.011c0.007-0.856 0.126-1.641 0.357-2.355 0.238-0.714 0.566-1.328 0.982-1.842 0.425-0.513 0.93-0.908 1.519-1.183 0.587-0.283 1.242-0.424 1.963-0.424 0.581 0 1.105 0.082 1.574 0.245 0.477 0.156 0.882 0.413 1.217 0.77 0.342 0.357 0.602 0.822 0.781 1.395 0.179 0.565 0.269 1.261 0.269 2.087v7.801h-2.702v-7.812c0-0.58-0.085-1.038-0.256-1.373-0.163-0.342-0.406-0.584-0.726-0.726-0.312-0.149-0.703-0.223-1.171-0.223-0.462 0-0.874 0.097-1.239 0.29s-0.674 0.458-0.927 0.792c-0.246 0.335-0.435 0.722-0.569 1.161s-0.201 0.908-0.201 1.406zM135.221 11.924h2.443v11.741c0 1.086-0.231 2.009-0.691 2.768-0.462 0.759-1.105 1.336-1.931 1.73-0.825 0.402-1.782 0.603-2.867 0.603-0.462 0-0.975-0.067-1.541-0.201-0.558-0.134-1.102-0.35-1.63-0.647-0.521-0.29-0.955-0.673-1.305-1.149l1.261-1.585c0.432 0.513 0.907 0.889 1.429 1.127s1.067 0.357 1.641 0.357c0.617 0 1.142-0.115 1.574-0.346 0.439-0.223 0.777-0.554 1.015-0.993 0.239-0.439 0.358-0.975 0.358-1.607v-9.063l0.246-2.734zM127.017 18.096v-0.234c0-0.915 0.112-1.748 0.335-2.5 0.223-0.759 0.543-1.41 0.96-1.953 0.416-0.55 0.922-0.971 1.518-1.261 0.595-0.298 1.269-0.446 2.019-0.446 0.782 0 1.448 0.141 1.998 0.424 0.559 0.283 1.024 0.688 1.395 1.216 0.373 0.521 0.663 1.146 0.871 1.875 0.216 0.722 0.376 1.525 0.48 2.411v0.748c-0.097 0.863-0.261 1.652-0.491 2.366s-0.536 1.332-0.915 1.853c-0.379 0.521-0.848 0.923-1.406 1.205-0.551 0.283-1.202 0.424-1.953 0.424-0.737 0-1.402-0.153-1.998-0.458-0.589-0.305-1.094-0.733-1.518-1.283-0.417-0.551-0.737-1.198-0.96-1.942-0.223-0.752-0.335-1.566-0.335-2.444zM129.706 17.862v0.234c0 0.551 0.053 1.064 0.157 1.54 0.112 0.476 0.279 0.897 0.503 1.261 0.23 0.357 0.52 0.64 0.87 0.848 0.358 0.201 0.778 0.301 1.262 0.301 0.632 0 1.15-0.134 1.551-0.402 0.409-0.268 0.722-0.629 0.938-1.083 0.223-0.461 0.379-0.975 0.469-1.54v-2.020c-0.045-0.439-0.138-0.848-0.279-1.228-0.135-0.379-0.317-0.71-0.547-0.993-0.231-0.29-0.521-0.513-0.871-0.67-0.35-0.164-0.762-0.246-1.239-0.246-0.483 0-0.904 0.104-1.261 0.312-0.358 0.208-0.651 0.495-0.882 0.859-0.223 0.365-0.39 0.789-0.502 1.272s-0.168 1.001-0.168 1.551zM139.483 18.096v-0.257c0-0.87 0.127-1.678 0.379-2.422 0.254-0.751 0.618-1.402 1.095-1.953 0.483-0.558 1.071-0.989 1.762-1.295 0.699-0.312 1.489-0.469 2.367-0.469 0.886 0 1.674 0.156 2.366 0.469 0.699 0.305 1.291 0.737 1.775 1.295 0.483 0.551 0.851 1.202 1.105 1.953 0.253 0.744 0.379 1.551 0.379 2.422v0.257c0 0.87-0.127 1.678-0.379 2.422-0.254 0.744-0.622 1.395-1.105 1.953-0.483 0.551-1.072 0.982-1.763 1.295-0.693 0.305-1.477 0.458-2.355 0.458-0.885 0-1.678-0.153-2.377-0.458-0.691-0.312-1.28-0.744-1.763-1.295-0.483-0.558-0.851-1.209-1.105-1.953-0.253-0.744-0.379-1.551-0.379-2.422zM142.174 17.839v0.257c0 0.543 0.056 1.057 0.167 1.54 0.112 0.484 0.287 0.908 0.525 1.272 0.239 0.365 0.544 0.651 0.915 0.859 0.373 0.208 0.815 0.312 1.328 0.312 0.499 0 0.93-0.104 1.295-0.312 0.373-0.208 0.678-0.495 0.915-0.859s0.413-0.789 0.525-1.272c0.119-0.484 0.178-0.997 0.178-1.54v-0.257c0-0.536-0.059-1.042-0.178-1.518-0.112-0.484-0.29-0.911-0.536-1.283-0.238-0.372-0.543-0.662-0.915-0.87-0.365-0.216-0.8-0.324-1.305-0.324-0.506 0-0.945 0.108-1.318 0.324-0.365 0.208-0.665 0.498-0.904 0.87-0.238 0.372-0.413 0.8-0.525 1.283-0.111 0.476-0.167 0.982-0.167 1.518z"></path>
</symbol>
<symbol id="icon-ukraine" viewBox="0 0 32 32">
<path fill="#ffda44" style="fill: var( #ffda44)" d="M16 32c8.837 0 16-7.163 16-16s-7.163-16-16-16c-8.837 0-16 7.163-16 16s7.163 16 16 16z"></path>
<path fill="#338af3" style="fill: var( #338af3)" d="M0 16c0-8.836 7.163-16 16-16s16 7.163 16 16z"></path>
</symbol>
<symbol id="icon--RadioButton-off" viewBox="0 0 32 32">
<path stroke-linejoin="miter" stroke-linecap="butt" stroke-miterlimit="4" stroke-width="2.6667" d="M16 4c6.627 0 12 5.373 12 12s-5.373 12-12 12c-6.627 0-12-5.373-12-12s5.373-12 12-12z"></path>
</symbol>
<symbol id="icon--RadioButtonOn" viewBox="0 0 32 32">
<path fill="none" stroke="#f4c550" style="stroke: var(--color8, #f4c550)" stroke-linejoin="miter" stroke-linecap="butt" stroke-miterlimit="4" stroke-width="2.6667" d="M16 4c6.627 0 12 5.373 12 12s-5.373 12-12 12c-6.627 0-12-5.373-12-12s5.373-12 12-12z"></path>
<path fill="#f4c550" style="fill: var(--color8, #f4c550)" d="M16 9.333c3.682 0 6.667 2.985 6.667 6.667s-2.985 6.667-6.667 6.667c-3.682 0-6.667-2.985-6.667-6.667s2.985-6.667 6.667-6.667z"></path>
</symbol>
<symbol id="icon-star" viewBox="0 0 32 32">
<path fill="#ffc531" style="fill: var(--color9, #ffc531); stroke: var(--color9, #ffc531)" stroke="#ffc531" stroke-linejoin="miter" stroke-linecap="butt" stroke-miterlimit="4" stroke-width="2.4" d="M12.4 9.394l3.6-6.822 3.6 6.822c0.318 0.603 0.899 1.025 1.571 1.141l7.601 1.315-5.376 5.532c-0.475 0.489-0.697 1.171-0.6 1.846l1.098 7.635-6.922-3.404c-0.612-0.301-1.329-0.301-1.941 0l-6.922 3.404 1.098-7.635c0.097-0.675-0.125-1.357-0.6-1.846l-5.376-5.532 7.601-1.315c0.672-0.116 1.252-0.538 1.571-1.141zM29.035 11.579v0zM7.767 27.031c0 0 0 0 0 0h-0z"></path>
</symbol>
<symbol id="icon-stick" viewBox="0 0 4 32">
<path stroke-linejoin="miter" stroke-linecap="butt" stroke-miterlimit="4" stroke-width="2" d="M2 0v32"></path>
</symbol>
<symbol id="icon-heart" viewBox="0 0 32 32">
<path stroke-linejoin="round" stroke-linecap="round" stroke-miterlimit="4" stroke-width="2.4615" d="M27.787 6.147c-0.681-0.681-1.49-1.222-2.379-1.591s-1.844-0.559-2.807-0.559-1.917 0.19-2.807 0.559c-0.89 0.369-1.699 0.909-2.38 1.591l-1.413 1.413-1.413-1.413c-1.376-1.376-3.241-2.148-5.187-2.148s-3.811 0.773-5.187 2.148c-1.376 1.376-2.148 3.241-2.148 5.187s0.773 3.811 2.148 5.187l11.787 11.787 11.787-11.787c0.681-0.681 1.222-1.49 1.591-2.379s0.559-1.844 0.559-2.807-0.19-1.917-0.559-2.807c-0.369-0.89-0.909-1.699-1.591-2.38z"></path>
</symbol>
<symbol id="icon-photo_point" viewBox="0 0 32 32">
<path fill="#fff" style="fill: var( #fff)" d="M32 16c0 8.837-7.163 16-16 16s-16-7.163-16-16c0-8.837 7.163-16 16-16s16 7.163 16 16z"></path>
<path fill="#38cd3e" style="fill: var( #38cd3e)" d="M26.667 16c0 5.891-4.776 10.667-10.667 10.667s-10.667-4.776-10.667-10.667c0-5.891 4.776-10.667 10.667-10.667s10.667 4.776 10.667 10.667z"></path>
</symbol>
<symbol id="icon-eye-off" viewBox="0 0 32 32">
<path stroke-linejoin="round" stroke-linecap="round" stroke-miterlimit="4" stroke-width="3.2" d="M23.92 23.92c-2.279 1.737-5.055 2.7-7.92 2.747-9.333 0-14.667-10.667-14.667-10.667 1.659-3.091 3.959-5.791 6.747-7.92M13.2 5.653c0.918-0.215 1.857-0.322 2.8-0.32 9.333 0 14.667 10.667 14.667 10.667-0.809 1.514-1.775 2.94-2.88 4.253M18.827 18.827c-0.366 0.393-0.808 0.708-1.298 0.927s-1.020 0.336-1.557 0.346-1.071-0.089-1.569-0.291c-0.498-0.201-0.951-0.5-1.33-0.88s-0.679-0.832-0.88-1.33c-0.201-0.498-0.3-1.032-0.29-1.569s0.127-1.067 0.346-1.557 0.534-0.932 0.927-1.298"></path>
<path stroke-linejoin="round" stroke-linecap="round" stroke-miterlimit="4" stroke-width="3.2" d="M1.334 1.333l29.333 29.333"></path>
</symbol>
<symbol id="icon-x" viewBox="0 0 32 32">
<path stroke-linejoin="round" stroke-linecap="round" stroke-miterlimit="4" stroke-width="2.5" d="M24 8l-16 16"></path>
<path stroke-linejoin="round" stroke-linecap="round" stroke-miterlimit="4" stroke-width="2.5" d="M8 8l16 16"></path>
</symbol>
<symbol id="icon-book" viewBox="0 0 32 32">
<path stroke-linejoin="round" stroke-linecap="round" stroke-miterlimit="4" stroke-width="3" d="M29.333 8.267c0-1.493 0-2.24-0.291-2.811-0.256-0.502-0.664-0.91-1.165-1.165-0.571-0.291-1.317-0.291-2.811-0.291h-0.533c-2.987 0-4.48 0-5.621 0.581-1.004 0.511-1.819 1.327-2.331 2.331-0.581 1.141-0.581 2.634-0.581 5.621v15.467l0.133-0.2c0.926-1.389 1.389-2.084 2.001-2.587 0.542-0.445 1.166-0.779 1.837-0.983 0.758-0.23 1.593-0.23 3.262-0.23h1.833c1.494 0 2.24 0 2.811-0.291 0.502-0.256 0.91-0.664 1.165-1.165 0.291-0.57 0.291-1.317 0.291-2.811v-11.467z"></path>
<path stroke-linejoin="round" stroke-linecap="round" stroke-miterlimit="4" stroke-width="3" d="M2.667 8.267c0-1.493 0-2.24 0.291-2.811 0.256-0.502 0.664-0.91 1.165-1.165 0.57-0.291 1.317-0.291 2.811-0.291h0.533c2.987 0 4.48 0 5.621 0.581 1.004 0.511 1.819 1.327 2.331 2.331 0.581 1.141 0.581 2.634 0.581 5.621v15.467l-0.133-0.2c-0.926-1.389-1.389-2.084-2.001-2.587-0.542-0.445-1.166-0.779-1.837-0.983-0.758-0.23-1.593-0.23-3.262-0.23h-1.833c-1.493 0-2.24 0-2.811-0.291-0.502-0.256-0.91-0.664-1.165-1.165-0.291-0.57-0.291-1.317-0.291-2.811v-11.467z"></path>
</symbol>
</defs>
</svg>
