<svg aria-hidden="true" style="position: absolute; width: 0; height: 0; overflow: hidden;" version="1.1" xmlns="http://www.w3.org/2000/svg" xmlns:xlink="http://www.w3.org/1999/xlink">
<defs>
<symbol id="icon-logo" viewBox="0 0 32 32">
<path fill="#000" style="fill: var(--color1, #000)" d="M0 0h32v32h-32v-32z"></path>
<path fill="#f7f8fa" style="fill: var(--color2, #f7f8fa)" d="M0 0h32v32h-32v-32z"></path>
</symbol>
<symbol id="icon-align-justify" viewBox="0 0 32 32">
<path fill="none" stroke="#59b17a" style="stroke: var(--color3, #59b17a)" stroke-linejoin="round" stroke-linecap="round" stroke-miterlimit="4" stroke-width="2" d="M28.338 16.207h-24"></path>
<path fill="none" stroke="#59b17a" style="stroke: var(--color3, #59b17a)" stroke-linejoin="round" stroke-linecap="round" stroke-miterlimit="4" stroke-width="2" d="M28.338 11.007h-24"></path>
<path fill="none" stroke="#59b17a" style="stroke: var(--color3, #59b17a)" stroke-linejoin="round" stroke-linecap="round" stroke-miterlimit="4" stroke-width="2" d="M28.338 21.407h-24"></path>
</symbol>
<symbol id="icon-attachment-3" viewBox="0 0 32 32">
<path fill="#59b17a" style="fill: var(--color3, #59b17a)" d="M27.464 18.748l-14.21-14.211c-2.368-2.463-6.253-2.463-8.716-0.095s-2.463 6.347 0 8.716l0.095 0.095 2.653 2.747 1.326-1.326-2.747-2.747c-1.611-1.611-1.611-4.358 0-5.968s4.358-1.705 5.968-0.095l14.211 14.211c1.705 1.61 1.705 4.358 0.095 5.968-1.61 1.705-4.358 1.705-5.968 0.095l-7.105-7.105c-0.947-0.947-0.853-2.463 0-3.316 0.454-0.411 1.045-0.639 1.658-0.639s1.204 0.228 1.658 0.639l3.884 3.884 1.326-1.326-3.979-3.979c-0.403-0.381-0.878-0.679-1.397-0.876s-1.072-0.289-1.627-0.272c-0.555 0.018-1.101 0.145-1.606 0.374s-0.96 0.557-1.339 0.963c-1.516 1.611-1.516 4.168 0 5.874l7.105 7.105c2.369 2.463 6.253 2.463 8.716 0.095s2.463-6.347 0-8.81c0 0.095 0 0 0 0z"></path>
</symbol>
<symbol id="icon-ci_users" viewBox="0 0 32 32">
<path stroke-linejoin="round" stroke-linecap="round" stroke-miterlimit="4" stroke-width="2.4" d="M28 26.667c0-2.323-2.227-4.297-5.333-5.031M20 26.667c0-2.947-3.581-5.333-8-5.333s-8 2.387-8 5.333M20 17.334c1.415 0 2.771-0.562 3.771-1.562s1.562-2.357 1.562-3.771-0.562-2.771-1.562-3.771c-1-1-2.357-1.562-3.771-1.562M12 17.334c-1.415 0-2.771-0.562-3.771-1.562s-1.562-2.357-1.562-3.771 0.562-2.771 1.562-3.771c1-1 2.357-1.562 3.771-1.562s2.771 0.562 3.771 1.562c1 1 1.562 2.357 1.562 3.771s-0.562 2.771-1.562 3.771c-1 1-2.357 1.562-3.771 1.562z"></path>
</symbol>
<symbol id="icon-facebook" viewBox="0 0 32 32">
<path fill="#f7f8fa" style="fill: var(--color2, #f7f8fa)" opacity="0.8" d="M19.52 4.64c0.24 0 0.48 0 0.96 0v3.6c-0.24 0-0.72 0-1.2 0s-0.96 0-1.2 0.24c-0.24 0.24-0.24 0.48-0.24 1.040 0 0.48 0 0.8 0 1.28h2.64v3.040h-2.64v13.2h-4.080v-13.28h-2.16v-3.040h2.16v-1.040c0-1.76 0.24-3.040 0.72-3.6 0.72-1.040 2.16-1.52 4.32-1.52 0.24 0.080 0.48 0.080 0.72 0.080z"></path>
</symbol>
<symbol id="icon-instagram" viewBox="0 0 32 32">
<path fill="#f7f8fa" style="fill: var(--color2, #f7f8fa)" opacity="0.8" d="M28.718 10.756c-0.016-1.074-0.215-2.14-0.596-3.145-0.667-1.716-2.024-3.073-3.743-3.737-0.994-0.373-2.044-0.573-3.108-0.596-1.368-0.061-1.801-0.078-5.273-0.078s-3.916 0-5.274 0.078c-1.062 0.023-2.112 0.223-3.106 0.596-1.719 0.664-3.078 2.021-3.743 3.737-0.374 0.992-0.576 2.041-0.596 3.101-0.061 1.367-0.080 1.8-0.080 5.265s0 3.909 0.080 5.265c0.021 1.062 0.222 2.109 0.596 3.104 0.667 1.714 2.024 3.071 3.744 3.735 0.989 0.386 2.040 0.605 3.106 0.639 1.369 0.061 1.803 0.079 5.274 0.079s3.916 0 5.274-0.079c1.062-0.021 2.112-0.221 3.108-0.595 1.719-0.666 3.076-2.022 3.743-3.737 0.374-0.994 0.574-2.041 0.596-3.104 0.061-1.365 0.080-1.798 0.080-5.265-0.003-3.466-0.003-3.906-0.082-5.264zM15.991 22.531c-3.631 0-6.572-2.936-6.572-6.561s2.941-6.561 6.572-6.561c3.628 0 6.572 2.936 6.572 6.561s-2.944 6.561-6.572 6.561zM22.825 10.696c-0.849 0-1.533-0.684-1.533-1.53s0.684-1.53 1.533-1.53c0.846 0 1.531 0.684 1.531 1.53s-0.685 1.53-1.531 1.53z"></path>
<path fill="#f7f8fa" style="fill: var(--color2, #f7f8fa)" opacity="0.8" d="M15.993 19.976c2.211 0 4.004-1.793 4.004-4.004s-1.793-4.004-4.004-4.004c-2.211 0-4.004 1.793-4.004 4.004s1.793 4.004 4.004 4.004z"></path>
</symbol>
<symbol id="icon-logogreen" viewBox="0 0 32 32">
<path fill="#000" style="fill: var(--color1, #000)" d="M0 0h32v32h-32v-32z"></path>
<path fill="#59b17a" style="fill: var(--color3, #59b17a)" d="M0 0h32v32h-32v-32z"></path>
</symbol>
<symbol id="icon-map-pin" viewBox="0 0 32 32">
<path fill="none" stroke="#59b17a" style="stroke: var(--color3, #59b17a)" stroke-linejoin="round" stroke-linecap="round" stroke-miterlimit="4" stroke-width="2.6667" d="M28 13.333c0 9.333-12 17.333-12 17.333s-12-8-12-17.333c0-3.183 1.264-6.235 3.515-8.485s5.303-3.515 8.485-3.515c3.183 0 6.235 1.264 8.485 3.515s3.515 5.303 3.515 8.485z"></path>
<path fill="none" stroke="#59b17a" style="stroke: var(--color3, #59b17a)" stroke-linejoin="round" stroke-linecap="round" stroke-miterlimit="4" stroke-width="2.6667" d="M16 17.333c2.209 0 4-1.791 4-4s-1.791-4-4-4c-2.209 0-4 1.791-4 4s1.791 4 4 4z"></path>
</symbol>
<symbol id="icon-Mask-group-1" viewBox="0 0 32 32">
<path fill="#000" style="fill: var(--color1, #000)" d="M0 0h32v32h-32v-32z"></path>
<path fill="#f7f8fa" style="fill: var(--color2, #f7f8fa)" d="M0 0h32v32h-32v-32z"></path>
</symbol>
<symbol id="icon-money" viewBox="0 0 32 32">
<path stroke-linejoin="round" stroke-linecap="round" stroke-miterlimit="4" stroke-width="2.4" d="M20.573 17.143c5.681 0 10.286-2.047 10.286-4.571s-4.605-4.571-10.286-4.571c-5.681 0-10.286 2.047-10.286 4.571s4.605 4.571 10.286 4.571z"></path>
<path stroke-linejoin="round" stroke-linecap="round" stroke-miterlimit="4" stroke-width="2.4" d="M10.287 12.572v13.714c0 2.514 4.571 4.571 10.286 4.571s10.286-2.057 10.286-4.571v-13.714"></path>
<path stroke-linejoin="round" stroke-linecap="round" stroke-miterlimit="4" stroke-width="2.4" d="M30.858 19.429c0 2.514-4.572 4.571-10.286 4.571s-10.286-2.057-10.286-4.571M20.344 3.429c-2.671-1.648-5.78-2.445-8.914-2.286-5.691 0-10.286 2.057-10.286 4.571 0 1.349 1.326 2.56 3.429 3.429"></path>
<path stroke-linejoin="round" stroke-linecap="round" stroke-miterlimit="4" stroke-width="2.4" d="M4.572 22.859c-2.103-0.869-3.429-2.080-3.429-3.429v-13.714"></path>
<path stroke-linejoin="round" stroke-linecap="round" stroke-miterlimit="4" stroke-width="2.4" d="M4.572 16c-2.103-0.869-3.429-2.080-3.429-3.429"></path>
</symbol>
<symbol id="icon-phone" viewBox="0 0 32 32">
<path fill="none" stroke="#59b17a" style="stroke: var(--color3, #59b17a)" stroke-linejoin="round" stroke-linecap="round" stroke-miterlimit="4" stroke-width="2.6667" d="M29.33 22.56v4c0.002 0.371-0.075 0.739-0.223 1.079s-0.367 0.646-0.641 0.897c-0.274 0.251-0.597 0.442-0.948 0.561s-0.725 0.163-1.094 0.13c-4.103-0.446-8.044-1.848-11.507-4.093-3.222-2.047-5.953-4.779-8-8-2.253-3.478-3.656-7.439-4.093-11.56-0.033-0.369 0.010-0.74 0.129-1.091s0.308-0.673 0.558-0.947c0.25-0.273 0.553-0.492 0.892-0.641s0.705-0.227 1.075-0.227h4c0.647-0.006 1.274 0.223 1.765 0.645s0.811 1.008 0.902 1.649c0.169 1.28 0.482 2.537 0.933 3.747 0.179 0.477 0.218 0.996 0.112 1.495s-0.353 0.956-0.712 1.319l-1.693 1.693c1.898 3.338 4.662 6.102 8 8l1.693-1.693c0.363-0.359 0.82-0.605 1.319-0.712s1.017-0.067 1.494 0.112c1.21 0.451 2.467 0.764 3.747 0.933 0.648 0.091 1.239 0.418 1.662 0.917s0.647 1.136 0.631 1.79z"></path>
</symbol>
<symbol id="icon-RadioButton" viewBox="0 0 32 32">
<path stroke-linejoin="miter" stroke-linecap="butt" stroke-miterlimit="4" stroke-width="3.2" d="M16 3.2c7.069 0 12.8 5.731 12.8 12.8s-5.731 12.8-12.8 12.8c-7.069 0-12.8-5.731-12.8-12.8s5.731-12.8 12.8-12.8z"></path>
</symbol>
<symbol id="icon-RadioButtonAct" viewBox="0 0 32 32">
<path fill="none" stroke="#59b17a" style="stroke: var(--color3, #59b17a)" stroke-linejoin="miter" stroke-linecap="butt" stroke-miterlimit="4" stroke-width="3.2" d="M16 3.2c7.069 0 12.8 5.731 12.8 12.8s-5.731 12.8-12.8 12.8c-7.069 0-12.8-5.731-12.8-12.8s5.731-12.8 12.8-12.8z"></path>
<path fill="#59b17a" style="fill: var(--color3, #59b17a)" d="M16 8c4.418 0 8 3.582 8 8s-3.582 8-8 8c-4.418 0-8-3.582-8-8s3.582-8 8-8z"></path>
</symbol>
<symbol id="icon-Vector" viewBox="0 0 32 32">
<path fill="none" stroke="#fff" style="stroke: var(--color4, #fff)" stroke-linejoin="round" stroke-linecap="round" stroke-miterlimit="4" stroke-width="3.4286" d="M29.332 4h-26.667l10.667 12.613v8.72l5.333 2.667v-11.387l10.667-12.613z"></path>
</symbol>
<symbol id="icon-x" viewBox="0 0 32 32">
<path stroke-linejoin="round" stroke-linecap="round" stroke-miterlimit="4" stroke-width="2.6667" d="M24 8l-16 16"></path>
<path stroke-linejoin="round" stroke-linecap="round" stroke-miterlimit="4" stroke-width="2.6667" d="M8 8l16 16"></path>
</symbol>
<symbol id="icon-youtube" viewBox="0 0 32 32">
<path fill="#f7f8fa" style="fill: var(--color2, #f7f8fa)" opacity="0.8" d="M24.239 5.999c-1.36-0.080-4.16-0.16-8.4-0.16h-0.56c-4.080 0-6.8 0.080-8.16 0.24-1.84 0.16-3.12 0.64-3.84 1.28-0.64 0.56-1.12 1.6-1.28 2.96-0.080 0.88-0.16 2.72-0.16 5.52v0.4c0 2.64 0.080 4.48 0.24 5.36 0.24 1.28 0.64 2.24 1.44 2.8 0.8 0.64 2.16 1.040 4.080 1.2 1.36 0.080 4.16 0.16 8.4 0.16h0.56c4.080 0 6.8-0.080 8.16-0.24 1.84-0.16 3.12-0.64 3.84-1.28 0.64-0.56 1.12-1.6 1.28-2.96 0.080-0.88 0.16-2.72 0.16-5.52v-0.4c0-2.64-0.080-4.48-0.24-5.36-0.24-1.28-0.64-2.24-1.44-2.8-0.8-0.64-2.16-1.040-4.080-1.2zM21.119 15.839l-8.8 5.28v-10.56l8.8 5.28z"></path>
</symbol>
</defs>
</svg>
